<svg xmlns="http://www.w3.org/2000/svg" width="1200" height="675" viewBox="0 0 1200 675" role="img" aria-label="Project placeholder">
  <defs>
    <linearGradient id="g" x1="0" y1="0" x2="1" y2="1">
      <stop offset="0%" stop-color="#7c3aed" stop-opacity="0.18"/>
      <stop offset="100%" stop-color="#22d3ee" stop-opacity="0.18"/>
    </linearGradient>
    <linearGradient id="gloss" x1="0" y1="0" x2="0" y2="1">
      <stop offset="0%" stop-color="#ffffff" stop-opacity="0.16"/>
      <stop offset="100%" stop-color="#ffffff" stop-opacity="0"/>
    </linearGradient>
  </defs>
  <rect width="1200" height="675" fill="#0a0a0a"/>
  <rect x="0" y="0" width="1200" height="675" fill="url(#g)"/>
  <g transform="translate(600,338)" opacity="0.75">
    <circle r="140" fill="none" stroke="#7c3aed" stroke-opacity="0.35" stroke-width="2"/>
    <circle r="220" fill="none" stroke="#22d3ee" stroke-opacity="0.25" stroke-width="2"/>
    <circle r="300" fill="none" stroke="#a78bfa" stroke-opacity="0.18" stroke-width="2"/>
  </g>
  <g transform="translate(600,338)">
    <rect x="-120" y="-120" width="240" height="240" rx="24" ry="24" fill="#111111" stroke="#ffffff" stroke-opacity="0.08"/>
    <path d="M-50 -20 h100 a12 12 0 0 1 12 12 v56 a12 12 0 0 1 -12 12 h-100 a12 12 0 0 1 -12 -12 v-56 a12 12 0 0 1 12 -12 z" fill="#1f2937"/>
    <rect x="-70" y="-60" width="140" height="20" rx="6" fill="#1f2937"/>
    <rect x="-80" y="50" width="160" height="10" rx="5" fill="#1f2937"/>
  </g>
  <rect x="0" y="0" width="1200" height="220" fill="url(#gloss)"/>
</svg>
